<svg width="111" height="36" viewBox="0 0 111 36" fill="none" xmlns="http://www.w3.org/2000/svg">
<path d="M19.2292 19.9079C20.741 19.9079 21.9666 18.6784 21.9666 17.1618C21.9666 15.6452 20.741 14.4158 19.2292 14.4158C17.7173 14.4158 16.4917 15.6452 16.4917 17.1618C16.4917 18.6784 17.7173 19.9079 19.2292 19.9079Z" fill="#FFFFF2"/>
<path d="M68.4811 16.9107C69.993 16.9107 71.2185 15.6813 71.2185 14.1647C71.2185 12.6481 69.993 11.4186 68.4811 11.4186C66.9693 11.4186 65.7437 12.6481 65.7437 14.1647C65.7437 15.6813 66.9693 16.9107 68.4811 16.9107Z" fill="#FFFFF2"/>
<path d="M79.839 12.4577C81.8855 12.4577 83.5445 10.7934 83.5445 8.74046C83.5445 6.68751 81.8855 5.02325 79.839 5.02325C77.7924 5.02325 76.1334 6.68751 76.1334 8.74046C76.1334 10.7934 77.7924 12.4577 79.839 12.4577Z" fill="#FFFFF2"/>
<path d="M92.3136 12.7423C94.8994 12.7423 96.9956 10.6395 96.9956 8.04558C96.9956 5.45164 94.8994 3.34883 92.3136 3.34883C89.7278 3.34883 87.6316 5.45164 87.6316 8.04558C87.6316 10.6395 89.7278 12.7423 92.3136 12.7423Z" fill="#FFFFF2"/>
<path d="M71.1816 20.8298H74.9873V23.8689H71.1816V30.5163C71.1816 31.2196 71.3241 31.6972 71.6162 31.9567C71.925 32.2077 72.3756 32.3327 72.9678 32.3327H74.9189C74.8932 32.142 74.8789 31.9442 74.8789 31.739C74.8789 30.4915 75.2794 29.4694 76.0723 28.7829C76.8818 28.0797 78.0755 27.5606 79.6445 27.2341L84.3262 26.3132C84.3261 25.3757 84.1097 24.6638 83.6758 24.195C83.2585 23.7095 82.6571 23.4665 81.8643 23.4665C81.0716 23.4666 80.4876 23.6515 80.0537 24.0114C79.6197 24.3547 79.3439 24.8738 79.2188 25.5603L75.1377 25.3679C75.4048 23.7772 76.1228 22.5716 77.2744 21.7595C78.4428 20.9306 79.9785 20.5114 81.873 20.5114C84.0344 20.5114 85.6617 21.0307 86.7383 22.0603C87.8399 23.09 88.3906 24.6055 88.3906 26.5896V31.5544C88.3906 31.9728 88.4579 32.2489 88.583 32.3913C88.7249 32.5169 88.9336 32.5847 89.209 32.5847H89.6182V35.3806C89.493 35.414 89.2841 35.4555 88.9922 35.489C88.7252 35.5224 88.4496 35.5397 88.1826 35.5397C87.6068 35.5397 87.0642 35.4389 86.5635 35.238C86.0794 35.0371 85.6789 34.7019 85.3701 34.2331C85.1871 33.9453 85.0606 33.5869 84.9873 33.1579C84.8088 33.52 84.5778 33.8514 84.2852 34.1501C83.8345 34.6357 83.2418 35.0209 82.499 35.2888C81.7813 35.5567 80.9378 35.6989 79.9863 35.6989H79.9697C78.476 35.6989 77.2488 35.3551 76.2891 34.6687C75.6211 34.166 75.189 33.5218 74.9961 32.7399V35.3718H71.4736C69.9801 35.3717 68.8787 35.0288 68.1777 34.3425C67.4767 33.6392 67.126 32.5254 67.126 31.0017V23.8689H64.7891V20.8298H67.126V17.4138H71.1816V20.8298ZM43.457 20.445C44.9342 20.445 46.153 20.7624 47.2129 21.3903C48.2728 22.0266 49.099 22.9312 49.6748 24.1032C50.2673 25.2753 50.5674 26.6822 50.5674 28.3064V29.1179H40.3691C40.4192 30.2732 40.7279 31.136 41.2871 31.697C41.8629 32.2577 42.6222 32.5338 43.5566 32.5339C44.241 32.5339 44.8091 32.3914 45.2598 32.0983C45.727 31.8053 46.0605 31.37 46.2607 30.7673L50.3418 31.0105C49.9662 32.4587 49.1569 33.589 47.9385 34.4011C46.7117 35.2131 45.2262 35.6237 43.4736 35.6237L43.4824 35.6403C42.0054 35.6403 40.7114 35.3304 39.6182 34.7194C38.5332 34.0832 37.6899 33.2033 37.0723 32.0564C36.4798 30.9178 36.1797 29.5781 36.1797 28.0378C36.1797 26.4976 36.4799 25.1751 37.0723 24.0534C37.6815 22.9148 38.5332 22.0266 39.6182 21.3903C40.703 20.7542 41.98 20.445 43.457 20.445ZM21.2568 35.3718H17.2012V20.8298H21.2568V35.3718ZM29.3945 31.278L32.7988 20.8298H37.0469L31.7227 35.3718H27.0068L21.708 20.8298H25.9561L29.3945 31.278ZM51.502 35.3718L51.4941 35.364H51.502V35.3718ZM59.5225 20.5036C60.5657 20.5036 61.4507 20.7293 62.1768 21.1814C62.9195 21.6334 63.4789 22.2783 63.8545 23.1071C64.255 23.9192 64.4463 24.8907 64.4463 26.0124V35.3718H60.3906V27.3689C60.3906 26.5903 60.3234 25.9286 60.1982 25.3845C60.0731 24.8403 59.8479 24.4381 59.5225 24.1618C59.197 23.8689 58.7466 23.7263 58.1709 23.7263C57.3197 23.7263 56.6772 24.0448 56.2266 24.6726C55.7759 25.2837 55.5498 26.1796 55.5498 27.3601V35.364H51.502V20.8298H55.1494L55.2354 23.1638C55.3566 22.8644 55.4978 22.5945 55.6582 22.3532C56.1089 21.7002 56.6683 21.2312 57.3359 20.9382C58.0035 20.6452 58.7297 20.5036 59.5225 20.5036ZM6.62695 16.1081C9.74793 16.1082 12.1429 16.9451 13.8203 18.6276C15.4978 20.2936 16.3329 22.6714 16.333 25.7605C16.333 28.8498 15.5065 31.2028 13.8457 32.8689C12.2016 34.5349 9.84805 35.364 6.78516 35.364H0V16.1081H6.62695ZM81.0381 29.57C80.3872 29.6956 79.8949 29.9136 79.5527 30.2233C79.2273 30.5164 79.0684 30.8932 79.0684 31.362C79.0684 31.8308 79.2273 32.2328 79.5527 32.5007C79.8782 32.7685 80.3455 32.9108 80.9629 32.9108L80.9463 32.9021C81.6139 32.9021 82.198 32.7762 82.707 32.5251C83.2078 32.2572 83.6093 31.8643 83.9014 31.362C84.1851 30.8597 84.335 30.2565 84.335 29.57V28.8669L81.0381 29.57ZM4.11426 31.8972H6.62695C8.48791 31.8971 9.8566 31.4032 10.7412 30.4069C11.6424 29.3939 12.0928 27.8367 12.0928 25.7439C12.0927 23.6511 11.6424 22.1024 10.7412 21.1062C9.8566 20.0932 8.48791 19.5906 6.62695 19.5905H4.11426V31.8972ZM43.457 23.4587C42.6142 23.4587 41.9048 23.7348 41.3457 24.2956C40.7865 24.8565 40.4776 25.6186 40.3691 26.6315H46.4033C46.3532 25.5683 46.0522 24.7649 45.5098 24.2458C44.984 23.7184 44.2999 23.4587 43.457 23.4587Z" fill="#FFFFF2"/>
<rect x="93.4737" y="12.5581" width="17.5263" height="23.4419" rx="8.76316" fill="#FFFFF2"/>
<rect x="101.82" y="19.2558" width="2.50376" height="3.34884" rx="1.25188" transform="rotate(180 101.82 19.2558)" fill="#222333"/>
<rect x="105.158" y="19.2558" width="2.50376" height="3.34884" rx="1.25188" transform="rotate(180 105.158 19.2558)" fill="#222333"/>
<path d="M102.267 21.1528L98.8721 27.9653H104.348L104.402 28.4028C104.563 29.6884 103.973 31.4909 102.865 32.9526C101.745 34.4316 100.018 35.6626 97.8135 35.6626V34.6626C99.6147 34.6626 101.074 33.6607 102.067 32.3491C102.931 31.2094 103.387 29.9096 103.425 28.9653H97.2559L97.6163 28.2417L101.372 20.7075L102.267 21.1528Z" fill="#222333"/>
</svg>
