<svg width="108" height="43" viewBox="0 0 108 43" fill="none" xmlns="http://www.w3.org/2000/svg">
<path d="M23.11 20.64C24.9215 20.64 26.39 19.1715 26.39 17.36C26.39 15.5485 24.9215 14.08 23.11 14.08C21.2985 14.08 19.83 15.5485 19.83 17.36C19.83 19.1715 21.2985 20.64 23.11 20.64Z" fill="#222333"/>
<path d="M34.28 13.42C36.7321 13.42 38.72 11.4321 38.72 8.98C38.72 6.52786 36.7321 4.54 34.28 4.54C31.8279 4.54 29.84 6.52786 29.84 8.98C29.84 11.4321 31.8279 13.42 34.28 13.42Z" fill="#222333"/>
<path d="M49.7897 11.22C52.888 11.22 55.3997 8.70832 55.3997 5.61C55.3997 2.51168 52.888 0 49.7897 0C46.6914 0 44.1797 2.51168 44.1797 5.61C44.1797 8.70832 46.6914 11.22 49.7897 11.22Z" fill="#222333"/>
<path d="M67.5 17C71.0899 17 74 14.0899 74 10.5C74 6.91015 71.0899 4 67.5 4C63.9102 4 61 6.91015 61 10.5C61 14.0899 63.9102 17 67.5 17Z" fill="#222333"/>
<path d="M95.82 42.64C94.03 42.64 92.56 42.23 91.41 41.41C90.29 40.57 89.72 39.4 89.72 37.91C89.72 36.42 90.2 35.2 91.15 34.38C92.12 33.54 93.55 32.92 95.43 32.53L101.04 31.43C101.04 30.31 100.78 29.46 100.26 28.9C99.76 28.32 99.04 28.03 98.09 28.03C97.14 28.03 96.44 28.25 95.92 28.68C95.4 29.09 95.07 29.71 94.92 30.53L90.03 30.3C90.35 28.4 91.21 26.96 92.59 25.99C93.99 25 95.83 24.5 98.1 24.5C100.69 24.5 102.64 25.12 103.93 26.35C105.25 27.58 105.91 29.39 105.91 31.76V37.69C105.91 38.19 105.99 38.52 106.14 38.69C106.31 38.84 106.56 38.92 106.89 38.92H107.38V42.26C107.23 42.3 106.98 42.35 106.63 42.39C106.31 42.43 105.98 42.45 105.66 42.45C104.97 42.45 104.32 42.33 103.72 42.09C103.14 41.85 102.66 41.45 102.29 40.89C101.92 40.31 101.74 39.49 101.74 38.43L102.16 38.75C101.94 39.53 101.56 40.21 100.99 40.79C100.45 41.37 99.74 41.83 98.85 42.15C97.99 42.47 96.98 42.64 95.84 42.64H95.82ZM96.99 39.3C97.79 39.3 98.49 39.15 99.1 38.85C99.7 38.53 100.18 38.06 100.53 37.46C100.87 36.86 101.05 36.14 101.05 35.32V34.48L97.1 35.32C96.32 35.47 95.73 35.73 95.32 36.1C94.93 36.45 94.74 36.9 94.74 37.46C94.74 38.02 94.93 38.5 95.32 38.82C95.71 39.14 96.27 39.31 97.01 39.31L96.99 39.3Z" fill="#222333"/>
<path d="M85.64 42.25C83.85 42.25 82.53 41.84 81.69 41.02C80.85 40.18 80.43 38.85 80.43 37.03V20.8H85.29V36.45C85.29 37.29 85.46 37.86 85.81 38.17C86.18 38.47 86.72 38.62 87.43 38.62H89.86V42.25H85.65H85.64ZM77.63 28.51V24.88H89.85V28.51H77.63Z" fill="#222333"/>
<path d="M61.71 42.25V24.88H66.08L66.27 29.97L65.65 29.81C65.82 28.51 66.17 27.48 66.69 26.7C67.23 25.92 67.9 25.36 68.7 25.01C69.5 24.66 70.37 24.49 71.32 24.49C72.57 24.49 73.63 24.76 74.5 25.3C75.39 25.84 76.06 26.61 76.51 27.6C76.99 28.57 77.22 29.73 77.22 31.07V42.25H72.36V32.69C72.36 31.76 72.28 30.97 72.13 30.32C71.98 29.67 71.71 29.19 71.32 28.86C70.93 28.51 70.39 28.34 69.7 28.34C68.68 28.34 67.91 28.72 67.37 29.47C66.83 30.2 66.56 31.27 66.56 32.68V42.24H61.7L61.71 42.25Z" fill="#222333"/>
<path d="M52.1 42.57C50.33 42.57 48.78 42.2 47.47 41.47C46.17 40.71 45.16 39.66 44.42 38.29C43.71 36.93 43.35 35.33 43.35 33.49C43.35 31.65 43.71 30.07 44.42 28.73C45.15 27.37 46.17 26.31 47.47 25.55C48.77 24.79 50.3 24.42 52.07 24.42C53.84 24.42 55.3 24.8 56.57 25.55C57.84 26.31 58.83 27.39 59.52 28.79C60.23 30.19 60.59 31.87 60.59 33.81V34.78H48.37C48.43 36.16 48.8 37.19 49.47 37.86C50.16 38.53 51.07 38.86 52.19 38.86C53.01 38.86 53.69 38.69 54.23 38.34C54.79 37.99 55.19 37.47 55.43 36.75L60.32 37.04C59.87 38.77 58.9 40.12 57.44 41.09C55.97 42.06 54.19 42.55 52.09 42.55L52.1 42.57ZM48.37 31.81H55.6C55.54 30.54 55.18 29.58 54.53 28.96C53.9 28.33 53.08 28.02 52.07 28.02C51.06 28.02 50.21 28.35 49.54 29.02C48.87 29.69 48.5 30.6 48.37 31.81Z" fill="#222333"/>
<path d="M32.36 42.25L26.01 24.88H31.1L35.22 37.36L39.3 24.88H44.39L38.01 42.25H32.37H32.36Z" fill="#222333"/>
<path d="M20.61 24.88V42.25H25.47V24.88H20.61Z" fill="#222333"/>
<path d="M0 42.25V19.24H7.94C11.68 19.24 14.55 20.24 16.56 22.25C18.57 24.24 19.57 27.08 19.57 30.77C19.57 34.46 18.58 37.27 16.59 39.26C14.62 41.25 11.8 42.24 8.13 42.24H0V42.25ZM4.93 38.1H7.94C10.17 38.1 11.81 37.51 12.87 36.32C13.95 35.11 14.49 33.25 14.49 30.75C14.49 28.25 13.95 26.4 12.87 25.21C11.81 24 10.17 23.4 7.94 23.4H4.93V38.11V38.1Z" fill="#222333"/>
</svg>
