<svg xmlns="http://www.w3.org/2000/svg" fill="none" viewBox="0 0 113 41" height="41" width="113">
<path fill="black" d="M9.88118 4.30566H0.323824V0.335938H15.3751C15.3751 1.14334 15.3328 1.93075 15.3868 2.7115C15.4428 3.5226 15.2112 4.18896 14.7723 4.87389C11.8023 9.50836 8.87041 14.1672 5.92509 18.8175C5.77943 19.0475 5.62338 19.2709 5.46114 19.5138H15.1925C15.3661 19.1446 15.5129 18.7995 15.6866 18.4686C17.1596 15.6626 19.5237 14.1038 22.6036 13.5764C24.4848 13.2542 26.3595 13.2922 28.1921 13.8739C31.0586 14.7838 32.7867 16.7987 33.6649 19.6104C34.2139 21.3681 34.2876 23.1808 34.2534 25.0036C34.2528 25.0343 34.2337 25.0647 34.2137 25.1229H19.1009C19.1246 25.5693 19.1334 25.985 19.1708 26.3982C19.3964 28.889 20.0735 31.2308 21.5607 33.2774C23.2902 35.6573 25.6543 36.8226 28.5901 36.8594C29.9304 36.8763 31.2359 36.686 32.5502 36.2838V29.0919H33.6122C33.6239 29.3404 33.6356 29.5882 33.6503 29.8995C33.735 29.8009 33.7888 29.7445 33.8357 29.6829C34.6728 28.5801 36.339 28.6926 36.9079 29.9506C37.5318 31.3304 37.494 32.7604 36.8307 34.1288C36.2674 35.2911 34.5197 35.4857 33.6667 34.207V39.8164C33.1115 39.9428 32.5674 40.0715 32.0211 40.1902C29.6962 40.6955 27.3493 40.8514 24.9848 40.568C19.9038 39.9592 16.5851 37.211 15.0618 32.32C14.3324 29.9777 14.1454 27.5655 14.1983 25.1274C14.2086 24.6529 14.2401 24.1788 14.264 23.658H0.0335731C0.0335731 23.0288 0.0830214 22.4398 0.0231787 21.862C-0.0977235 20.6948 0.26381 19.7238 0.886885 18.7333C3.45768 14.6465 5.95225 10.5118 8.48489 6.40096C8.91895 5.69642 9.40197 5.02206 9.88118 4.30566ZM29.3152 21.8172C29.3054 20.858 29.0603 20.0078 28.5718 19.2331C27.763 17.9502 26.5473 17.3603 25.0762 17.2415C22.5332 17.0362 20.3938 18.2318 19.5426 20.7419C19.4286 21.0778 19.3842 21.4372 19.3006 21.8172H29.3152ZM36.1443 31.9822C36.0521 31.503 35.9894 30.9975 35.8512 30.5135C35.7301 30.0896 35.4129 29.8166 34.9505 29.7984C34.5163 29.7814 34.2046 30.0236 34.0238 30.3918C33.5121 31.4343 33.4995 32.5053 33.9524 33.5675C34.141 34.0098 34.5039 34.2489 35.0118 34.2105C35.492 34.1741 35.7577 33.8628 35.8718 33.4496C36.0002 32.9848 36.052 32.4989 36.1443 31.9822Z"></path>
<path fill="black" d="M66.3891 9.81752C65.3529 9.69549 64.3774 9.58061 63.3848 9.46371V6.72817C65.7532 6.46202 68.1106 6.34714 70.5344 6.42367C70.47 7.44919 70.4092 8.41712 70.3443 9.45196C70.4211 9.34351 70.4708 9.2832 70.51 9.21675C71.6353 7.31033 73.3034 6.27959 75.5085 6.1054C76.3121 6.04193 77.1029 6.10265 77.8694 6.35047C79.2547 6.79834 80.1456 7.75141 80.6251 9.10957C80.6616 9.21311 80.6942 9.31806 80.7486 9.48291C80.8293 9.35094 80.8842 9.26261 80.9377 9.17338C82.0684 7.28764 83.7248 6.25121 85.9229 6.10194C86.9746 6.03052 88.0033 6.14262 88.9671 6.60148C90.2708 7.22218 90.9622 8.32282 91.2635 9.682C91.3966 10.283 91.4759 10.9087 91.4788 11.5236C91.4976 15.4593 91.4885 19.3951 91.4879 23.3308C91.4879 23.4188 91.4804 23.5068 91.4752 23.6207H87.0933V23.1777C87.0933 19.7519 87.0973 16.3261 87.0886 12.9003C87.0874 12.4374 87.0465 11.9714 86.9835 11.5123C86.7601 9.88447 85.5184 9.54903 84.3419 9.86833C83.4305 10.1157 82.7681 10.711 82.2428 11.4646C81.4166 12.6498 81.0914 13.9878 81.0915 15.4174C81.0917 18.0116 81.0915 20.6059 81.0915 23.2002C81.0915 23.3308 81.0915 23.4613 81.0915 23.6193H76.7386V23.2366C76.7386 19.6556 76.7429 16.0746 76.7328 12.4936C76.7316 12.0872 76.6851 11.6734 76.599 11.2762C76.3564 10.1556 75.4827 9.59396 74.3473 9.78713C73.2961 9.96597 72.5347 10.5754 71.938 11.4166C71.1159 12.5755 70.7635 13.8913 70.7537 15.2934C70.7354 17.9208 70.7485 20.5484 70.7485 23.1759V23.6238H66.3891V9.81752Z"></path>
<path fill="black" d="M109.555 20.2771C110.56 20.3962 111.544 20.5128 112.542 20.6312V23.351C110.214 23.6531 107.877 23.7206 105.455 23.661C105.5 22.7226 105.545 21.7971 105.591 20.8453C105.337 21.2142 105.126 21.5771 104.861 21.8942C103.827 23.1297 102.469 23.7539 100.889 23.9333C99.816 24.0551 98.7623 23.9735 97.759 23.556C96.1654 22.8929 95.372 21.6447 95.2332 19.9603C95.0066 17.2096 96.5264 15.3533 98.8823 14.2991C100.324 13.6538 101.851 13.3612 103.415 13.241C103.976 13.198 104.537 13.1793 105.126 13.1481C105.148 12.4198 105.198 11.6996 104.941 11.0102C104.576 10.0315 103.757 9.68193 102.811 9.56219C100.827 9.31101 98.9668 9.77623 97.1733 10.5893C97.0239 10.657 96.878 10.7325 96.6939 10.8221C96.5668 9.5912 96.4433 8.395 96.3135 7.13837C96.8368 6.98112 97.3559 6.80725 97.8845 6.66973C99.3692 6.2834 100.884 6.07991 102.416 6.07814C103.711 6.07665 105.003 6.17176 106.249 6.59257C108.163 7.23906 109.187 8.5994 109.44 10.5677C109.509 11.104 109.528 11.6495 109.53 12.1909C109.539 14.7291 109.534 17.2674 109.535 19.8056C109.535 19.9465 109.547 20.0875 109.555 20.2771ZM105.101 16.0097C103.535 16.0706 101.982 16.0814 100.569 16.854C100.331 16.9844 100.11 17.1702 99.9248 17.3704C99.1027 18.2573 99.1497 20.1487 100.789 20.5123C101.247 20.614 101.768 20.6003 102.228 20.4975C104.23 20.0502 105.303 17.8093 105.101 16.0097Z"></path>
<path fill="black" d="M61.3899 15.7557H50.6809C50.7686 16.3899 50.8009 16.9967 50.9424 17.5768C51.3481 19.2393 52.4771 20.1528 54.1248 20.4154C56.2134 20.7483 58.2219 20.3716 60.171 19.6059C60.2622 19.5701 60.3524 19.5316 60.4857 19.4768C60.6244 20.6196 60.7597 21.735 60.9045 22.928C60.0834 23.153 59.284 23.4075 58.4683 23.588C56.8045 23.9562 55.1162 24.0769 53.4174 23.9201C51.6644 23.7582 50.0248 23.2803 48.6782 22.0697C47.5395 21.046 46.8888 19.7409 46.5807 18.2668C46.0441 15.6997 46.0646 13.1506 47.1176 10.7047C48.3671 7.80261 50.6227 6.29288 53.7691 6.10135C54.8388 6.03624 55.8923 6.13144 56.9177 6.45223C58.6879 7.00599 59.963 8.13472 60.7354 9.8159C61.6028 11.7037 61.6172 13.6907 61.3899 15.7557ZM57.1485 12.7475C57.136 12.489 57.1305 12.2509 57.1121 12.0138C57.0109 10.7107 56.1957 9.70913 55.003 9.41769C53.2248 8.98318 51.6157 9.90651 51.0363 11.7062C50.9306 12.0346 50.8734 12.3786 50.7862 12.7475H57.1485Z"></path>
<path fill="black" d="M39.6668 6.45118H43.825V9.87922H39.6666V10.2733C39.6666 12.7345 39.656 15.1957 39.6755 17.6567C39.6794 18.1494 39.7513 18.6532 39.8743 19.1306C40.0529 19.8239 40.5326 20.2155 41.249 20.2169C42.0073 20.2183 42.7658 20.122 43.5241 20.0654C43.6209 20.0581 43.7163 20.0327 43.8337 20.0119V23.5525C43.3431 23.6432 42.8402 23.7527 42.3322 23.827C41.0549 24.0136 39.7725 24.0638 38.494 23.8498C36.6795 23.546 35.6787 22.4868 35.4357 20.596C35.3512 19.9389 35.3046 19.2726 35.3011 18.6101C35.2865 15.8386 35.2949 13.0671 35.2949 10.2955C35.2949 10.175 35.2949 10.0545 35.2949 9.88991H32.3418V6.47074H35.2547V1.17055C36.7365 0.777433 38.185 0.393139 39.6668 0V6.45118Z"></path>
<path fill="black" d="M26.9557 9.41936H22.4041C20.8812 6.39124 19.3571 3.36051 17.8145 0.292969H24.443C25.2752 3.31555 26.1111 6.35189 26.9557 9.41936Z"></path>
<path fill="black" d="M52.2088 29.7431C52.2218 29.5307 52.2349 29.3183 52.2488 29.0919H53.3014C53.3097 29.2062 53.3253 29.322 53.3254 29.4377C53.3268 31.3656 53.3312 33.2935 53.3248 35.2214C53.32 36.6941 52.5434 37.4988 51.0664 37.5671C50.3257 37.6015 49.587 37.5887 48.8533 37.3693V36.3093C49.1529 36.4146 49.4241 36.5631 49.7092 36.598C50.185 36.6564 50.6771 36.7012 51.1489 36.6429C51.6868 36.5764 52.0585 36.21 52.1437 35.6637C52.2227 35.1575 52.2216 34.6388 52.2558 34.1257C52.2097 34.1008 52.1636 34.076 52.1175 34.0511C52.1016 34.1025 52.0983 34.1632 52.0679 34.2037C51.2274 35.326 49.5149 35.2001 48.9492 33.9238C48.3607 32.5959 48.3768 31.2154 49.0316 29.9092C49.6364 28.7027 51.2308 28.5991 52.0728 29.6631C52.0995 29.6968 52.1098 29.7435 52.1277 29.7842C52.1547 29.7705 52.1818 29.7568 52.2088 29.7431ZM49.7164 31.9469C49.8208 32.4414 49.8922 32.9336 50.0345 33.4043C50.1441 33.7667 50.3999 34.0323 50.8177 34.0745C51.2513 34.1183 51.5881 33.9406 51.7892 33.5744C52.3651 32.5256 52.3964 31.4466 51.8667 30.3712C51.6766 29.9854 51.3287 29.7793 50.8921 29.8019C50.4573 29.8245 50.1642 30.0936 50.0443 30.4884C49.9014 30.9591 49.8249 31.45 49.7164 31.9469Z"></path>
<path fill="black" d="M74.1401 32.0142C74.0473 32.5001 74.0015 33.001 73.8525 33.4689C73.4563 34.7124 72.4732 35.1425 71.363 35.0744C69.9105 34.9853 69.0866 34.1898 68.9594 32.7395C68.9023 32.0886 68.9151 31.4028 69.0581 30.7693C69.3604 29.4299 70.5021 28.7512 71.9148 28.9615C73.1789 29.1498 73.9233 29.9888 74.0504 31.3735C74.0696 31.5826 74.0746 31.793 74.0861 32.0028C74.1041 32.0066 74.1221 32.0104 74.1401 32.0142ZM70.088 31.8495C70.1344 32.319 70.1596 32.6387 70.2006 32.9563C70.2174 33.0866 70.2608 33.2151 70.3053 33.3397C70.5116 33.9174 70.892 34.2027 71.4634 34.2154C72.0359 34.2281 72.4603 33.9667 72.6523 33.3892C72.9614 32.4597 72.9606 31.5118 72.6339 30.5851C72.4467 30.054 72.0163 29.787 71.4835 29.7911C70.9513 29.7953 70.5108 30.0675 70.3433 30.5969C70.2017 31.0443 70.152 31.5209 70.088 31.8495Z"></path>
<path fill="black" d="M42.373 31.9876C42.4157 31.6367 42.4308 31.2798 42.5056 30.9359C42.8682 29.2678 44.1068 28.8069 45.4464 28.9732C46.4662 29.0998 47.1174 29.6867 47.3979 30.6691C47.6628 31.5966 47.6636 32.5319 47.3657 33.4515C47.0053 34.5644 46.0146 35.1674 44.8452 35.0899C43.1184 34.9754 42.5305 33.7973 42.4145 32.4894C42.3999 32.3245 42.4125 32.1572 42.4125 31.991C42.3993 31.9899 42.3862 31.9887 42.373 31.9876ZM46.4115 32.0096C46.3227 31.5364 46.2767 31.0706 46.1426 30.6318C45.9734 30.0782 45.5348 29.794 44.9935 29.7937C44.4465 29.7934 44.0172 30.07 43.8308 30.6188C43.5188 31.5367 43.5253 32.4729 43.8242 33.3915C44.0065 33.9515 44.4178 34.2149 44.9794 34.221C45.5394 34.2271 45.9562 33.9698 46.1355 33.4024C46.2768 32.9552 46.3225 32.4778 46.4115 32.0096Z"></path>
<path fill="black" d="M111.658 31.6006C111.658 31.1892 111.692 30.8237 111.649 30.4674C111.603 30.0777 111.276 29.8352 110.851 29.7947C110.436 29.7551 110.05 29.9691 109.908 30.3253C109.864 30.436 109.839 30.5542 109.801 30.6833H108.714C108.616 30.1446 108.893 29.5523 109.425 29.2688C110.197 28.8568 111.017 28.8148 111.833 29.1158C112.453 29.3447 112.745 29.8691 112.758 30.4928C112.789 31.9639 112.768 33.4361 112.768 34.9331H111.698C111.686 34.7455 111.674 34.5528 111.66 34.3268C111.61 34.3587 111.571 34.3715 111.551 34.398C111.027 35.0682 110.329 35.1938 109.553 35.0052C108.926 34.8528 108.575 34.4138 108.489 33.7867C108.394 33.0958 108.604 32.5154 109.214 32.1253C109.792 31.7563 110.446 31.6521 111.112 31.6025C111.285 31.5896 111.46 31.6006 111.658 31.6006ZM111.629 32.2743C111.289 32.3316 110.932 32.3452 110.612 32.4602C110.344 32.5565 110.079 32.7343 109.883 32.9424C109.609 33.234 109.645 33.7349 109.893 34.0088C110.12 34.2597 110.487 34.2834 110.866 34.0718C111.431 33.7561 111.754 33.0372 111.629 32.2743Z"></path>
<path fill="black" d="M101.752 29.0898H102.828V34.9339H101.755V33.7975C101.735 33.7948 101.716 33.7921 101.696 33.7894C101.616 33.9292 101.542 34.073 101.455 34.2081C101.053 34.8322 100.468 35.1297 99.7377 35.075C98.8346 35.0074 98.3199 34.4208 98.2964 33.4043C98.2667 32.119 98.2852 30.8326 98.2829 29.5467C98.2826 29.404 98.2829 29.2613 98.2829 29.0952H99.3887C99.3887 29.2222 99.3887 29.3409 99.3887 29.4596C99.3887 30.5461 99.3852 31.6326 99.3916 32.719C99.393 32.95 99.4061 33.1862 99.4564 33.4104C99.556 33.8545 99.8758 34.045 100.326 33.9654C100.725 33.8947 101.003 33.6522 101.223 33.3318C101.614 32.763 101.75 32.1209 101.751 31.4425C101.753 30.6678 101.752 29.8932 101.752 29.0898Z"></path>
<path fill="black" d="M84.3581 29.0898H85.4314C85.4314 29.2175 85.4311 29.3353 85.4314 29.4532C85.4345 30.5837 85.4368 31.7141 85.442 32.8445C85.4426 32.9658 85.4534 33.0882 85.4718 33.2082C85.5853 33.951 86.2058 34.2283 86.8275 33.7844C87.5374 33.2776 87.759 32.5135 87.7885 31.6904C87.8149 30.9487 87.7944 30.2054 87.7946 29.4628C87.7946 29.344 87.7946 29.2252 87.7946 29.0901H88.875V34.9408H87.7985V33.858L87.7253 33.8437C87.6795 33.925 87.6339 34.0065 87.5878 34.0876C87.138 34.8794 86.3599 35.2354 85.478 35.0327C84.8987 34.8995 84.5764 34.4981 84.4398 33.9396C84.3875 33.7259 84.3411 33.5042 84.3396 33.2858C84.3305 31.9669 84.3349 30.648 84.3362 29.329C84.3363 29.2542 84.3495 29.1793 84.3581 29.0898Z"></path>
<path fill="black" d="M59.2187 31.577H55.8386C55.8803 32.4565 56.0793 33.2317 56.7582 33.7952C57.458 34.3762 58.2624 34.2578 59.0797 34.044V34.8791C58.2664 35.1045 57.4574 35.1769 56.6483 34.9513C55.7377 34.6974 55.1803 34.0692 54.924 33.177C54.6845 32.3431 54.6543 31.4942 54.8568 30.6474C55.2033 29.198 56.9055 28.4606 58.2156 29.188C58.868 29.5502 59.1336 30.1536 59.2146 30.8566C59.2407 31.083 59.2187 31.3151 59.2187 31.577ZM58.1001 30.8179C58.1222 30.2179 57.7036 29.8053 57.0825 29.7916C56.4576 29.7779 55.9391 30.2346 55.9322 30.8179H58.1001Z"></path>
<path fill="black" d="M83.2673 30.9667H82.0709C82.0492 30.8512 82.0248 30.745 82.0097 30.6376C81.9548 30.2472 81.796 29.9379 81.3798 29.8339C80.9433 29.7248 80.5939 29.8774 80.3225 30.2168C80.0319 30.5802 79.9484 31.0186 79.9447 31.4657C79.9422 31.7842 79.9674 32.11 80.0341 32.4209C80.2974 33.6473 81.1498 34.283 82.4082 34.214C82.6504 34.2008 82.8917 34.1741 83.1651 34.1509V34.8773C82.1937 35.1155 81.2252 35.2376 80.2739 34.8203C79.6075 34.5279 79.1951 33.984 78.957 33.3102C78.6855 32.5421 78.6348 31.75 78.7903 30.953C79.1127 29.3017 80.6371 28.4877 82.2067 29.1167C82.9336 29.408 83.3793 30.177 83.2673 30.9667Z"></path>
<path fill="black" d="M62.2243 27V29.0741H63.8147V29.926H62.2126V30.9869C62.2126 31.663 62.2118 32.3392 62.2128 33.0153C62.2142 34.0052 62.5233 34.2862 63.507 34.1941C63.5728 34.188 63.6385 34.1812 63.7238 34.1727V34.9959C63.0567 35.1178 62.3902 35.1683 61.7502 34.8704C61.2688 34.6462 61.1191 34.2136 61.1174 33.7175C61.1138 32.5869 61.1163 31.4563 61.1163 30.3257V29.9319H60.0742V29.0824H61.0996V27.7027C61.4676 27.4728 61.8116 27.2579 62.2243 27Z"></path>
<path fill="black" d="M65.4478 29.9284H64.4492V29.0874H65.454V27.6948C65.8134 27.4704 66.148 27.2615 66.5325 27.0215V29.054H68.1632V29.9214H66.5462V30.3894C66.5462 31.2536 66.5432 32.1177 66.5487 32.9818C66.5498 33.1689 66.567 33.3584 66.6018 33.5421C66.6814 33.9625 66.9216 34.1759 67.3506 34.2057C67.5795 34.2215 67.8104 34.2085 68.0585 34.2085V35C67.4185 35.1108 66.7964 35.1542 66.1882 34.9135C65.651 34.7009 65.4663 34.2661 65.4668 33.722C65.4677 32.6031 65.4676 31.4841 65.4663 30.3652C65.4661 30.2348 65.4555 30.1044 65.4478 29.9284Z"></path>
<path fill="black" d="M94.4516 29.9281H93.457V29.0806H94.4558V27.7033C94.8207 27.4776 95.1558 27.2703 95.5644 27.0176V29.0755H97.1893V29.9207H95.6284C95.6042 29.9949 95.5791 30.0361 95.5793 30.0771C95.5832 31.1632 95.5658 32.25 95.6047 33.3348C95.6286 34.0016 95.9542 34.2426 96.6307 34.2086C96.7726 34.2014 96.9143 34.1904 97.0792 34.1798V34.9961C96.4227 35.1154 95.7877 35.1482 95.1728 34.8955C94.7284 34.7129 94.5041 34.3496 94.497 33.8778C94.4794 32.714 94.4803 31.55 94.4721 30.3861C94.4711 30.245 94.4598 30.104 94.4516 29.9281Z"></path>
<path fill="black" d="M91.9982 34.9412H90.9414V26.4492H91.9982V34.9412Z"></path>
<path fill="black" d="M39.8007 34.9447H38.7246V29.0908H39.7826V30.1031L39.8508 30.1537C40.2172 29.4206 40.7553 28.9546 41.6193 28.9453V30.091C41.5961 30.106 41.5871 30.1168 41.5774 30.1174C40.1303 30.2193 39.8276 31.2915 39.8038 32.3627C39.7876 33.0934 39.8007 33.8247 39.8007 34.5557C39.8007 34.6753 39.8007 34.7948 39.8007 34.9447Z"></path>
<path fill="black" d="M105.855 34.9378H104.746V29.1006H105.833V30.1134C106.256 29.4246 106.79 28.96 107.655 28.9453V30.1036C107.606 30.1194 107.575 30.1364 107.544 30.1384C106.366 30.2122 105.905 31.0421 105.863 32.106C105.826 33.0335 105.855 33.9636 105.855 34.9378Z"></path>
</svg>
